<?xml version="1.0" standalone="no"?><!DOCTYPE svg PUBLIC "-//W3C//DTD SVG 1.1//EN" "http://www.w3.org/Graphics/SVG/1.1/DTD/svg11.dtd"><svg t="1536067858926" class="icon" style="" viewBox="0 0 1081 1024" version="1.1" xmlns="http://www.w3.org/2000/svg" p-id="2399" xmlns:xlink="http://www.w3.org/1999/xlink" width="211.1328125" height="200"><defs><style type="text/css"></style></defs><path d="M20.690787 982.618425h36.208878a20.690787 20.690787 0 1 1 0 41.381575H20.690787a20.690787 20.690787 0 0 1 0-41.381575z m954.362569 0h85.349498a20.690787 20.690787 0 0 1 0 41.381575h-85.349498a20.690787 20.690787 0 0 1 0-41.381575z m-827.631496 0h747.454695a20.690787 20.690787 0 0 1 0 41.381575H147.42186a20.690787 20.690787 0 0 1 0-41.381575z" fill="#261D50" p-id="2400"></path><path d="M199.148829 391.831786h289.671023v547.012692a33.62253 33.62253 0 0 1-33.622529 33.62253H232.771358a33.62253 33.62253 0 0 1-33.622529-33.62253z" fill="#72C69C" p-id="2401"></path><path d="M838.843316 916.860517h-222.425964a33.62253 33.62253 0 0 1-33.62253-33.62253V590.980615h289.671024v292.257372a33.62253 33.62253 0 0 1-33.62253 33.62253zM233.637785 65.951885h222.425964a33.62253 33.62253 0 0 1 33.62253 33.622529v292.257372h-289.671024V99.574414a33.62253 33.62253 0 0 1 33.62253-33.622529z" fill="#FFFFFF" p-id="2402"></path><path d="M499.165246 402.17718H188.803435V99.574414a43.967923 43.967923 0 0 1 43.967923-43.967923h222.425965a43.967923 43.967923 0 0 1 43.967923 43.967923z m-289.671024-20.690787h268.980237V99.574414a23.277136 23.277136 0 0 0-23.277136-23.277135H232.771358a23.277136 23.277136 0 0 0-23.277136 23.277135zM279.32563 876.772116h126.731073v23.277136h-126.731073z" fill="#261D50" p-id="2403"></path><path d="M406.056703 171.99217h-51.726969V120.265202h-23.277136v51.726968h-51.726968v23.277136h51.726968v51.726969h23.277136v-51.726969h51.726969v-23.277136z" fill="#261D50" p-id="2404"></path><path d="M322.000379 10.345394h42.674749a23.277136 23.277136 0 0 1 23.277136 23.277136v32.329355h-89.229021V33.62253a23.277136 23.277136 0 0 1 23.277136-23.277136z" fill="#FDD838" p-id="2405"></path><path d="M398.297657 76.297279h-109.919808V33.62253a33.62253 33.62253 0 0 1 33.62253-33.62253h42.674749a33.62253 33.62253 0 0 1 33.622529 33.62253z m-89.22902-20.690788h68.538233V33.62253a12.931742 12.931742 0 0 0-12.931742-12.931743h-42.674749a12.931742 12.931742 0 0 0-12.931742 12.931743z" fill="#261D50" p-id="2406"></path><path d="M871.599419 590.980615H581.928396V43.967923a33.62253 33.62253 0 0 1 33.622529-33.622529h222.425965a33.62253 33.62253 0 0 1 33.622529 33.622529z" fill="#00B7D6" p-id="2407"></path><path d="M881.944813 601.326009H571.583002V43.967923a43.967923 43.967923 0 0 1 43.967923-43.967923h222.425965a43.967923 43.967923 0 0 1 43.967923 43.967923z m-289.671024-20.690788h268.980236V43.967923a23.277136 23.277136 0 0 0-23.277135-23.277136H615.550925a23.277136 23.277136 0 0 0-23.277136 23.277136z" fill="#261D50" p-id="2408"></path><path d="M837.97689 927.20591H615.550925a43.967923 43.967923 0 0 1-43.967923-43.967923V580.635221h310.361811v302.602766a43.967923 43.967923 0 0 1-43.967923 43.967923zM592.273789 601.326009v281.911978a23.277136 23.277136 0 0 0 23.277136 23.277136h222.425965a23.277136 23.277136 0 0 0 23.277135-23.277136V601.326009zM664.691545 82.76315h126.731073v23.277135h-126.731073z" fill="#261D50" p-id="2409"></path><path d="M791.422618 787.543095h-51.726969v-51.726968h-23.277135v51.726968h-51.726969v23.277136h51.726969v51.726969h23.277135v-51.726969h51.726969v-23.277136z" fill="#261D50" p-id="2410"></path><path d="M748.747869 972.467008h-42.674749a23.277136 23.277136 0 0 1-23.277136-23.277136v-32.329355h89.229021v32.329355a23.277136 23.277136 0 0 1-23.277136 23.277136z" fill="#FDD838" p-id="2411"></path><path d="M748.747869 982.812401h-42.674749a33.62253 33.62253 0 0 1-33.62253-33.622529v-42.674749h109.919808v42.674749a33.62253 33.62253 0 0 1-33.622529 33.622529z m-55.606491-55.606491v21.983962a12.931742 12.931742 0 0 0 12.931742 12.931742h42.674749a12.931742 12.931742 0 0 0 12.931742-12.931742v-21.983962zM456.063749 982.812401h-222.425964a43.967923 43.967923 0 0 1-43.967923-43.967923V666.514921a10.345394 10.345394 0 0 1 20.690787 0V938.844478a23.277136 23.277136 0 0 0 23.277136 23.277136h222.425964a23.277136 23.277136 0 0 0 23.277136-23.277136V402.17718h-268.980236v79.6466a10.345394 10.345394 0 0 1-20.690787 0V381.486393h310.361811v557.358085a43.967923 43.967923 0 0 1-43.967924 43.967923z m-256.048494-363.808701a10.345394 10.345394 0 0 1-10.345393-10.345394V527.615079a10.345394 10.345394 0 0 1 20.690787 0v81.043227a10.345394 10.345394 0 0 1-10.345394 10.345394z" fill="#261D50" p-id="2412"></path></svg>